<?xml version="1.0" encoding="utf-8"?>
<svg viewBox="0 0 192 192" xmlns="http://www.w3.org/2000/svg">
  <clipPath id="b">
    <path d="M 8 20 L 8 160 C 8 166.6 13.4 172 20 172 L 172 172 C 178.6 172 184 166.6 184 160 L 184 20 L 8 20 Z" overflow="visible"/>
    <path d="M 116 52 L 76 52 C 71.58 52 68 48.42 68 44 C 68 39.58 71.58 36 76 36 L 116 36 C 120.42 36 124 39.58 124 44 C 124 48.42 120.42 52 116 52 Z" overflow="visible"/>
  </clipPath>
  <path d="M0 0h192v192H0z" fill="none" transform="matrix(1, 0, 0, 1, -2.842170943040401e-14, 0)"/>
  <rect width="192" height="192" style="fill: rgb(255, 255, 255);" transform="matrix(1, 0, 0, 1, -2.842170943040401e-14, 0)"/>
  <g clip-path="url(#b)" style="" transform="matrix(1.184211015701294, 0, 0, 1.1818180084228516, -17.68421936035159, -11.272712707519531)">
    <defs>
      <circle cx="96" cy="160" id="c" r="76"/>
    </defs>
    <clipPath id="d">
      <circle cx="96" cy="160" r="76" overflow="visible"/>
    </clipPath>
    <path clip-path="url(#d)" d="M 32.07 84 L 32.07 177.26999999999998 L 66.08 177.26999999999998 L 96 125.45 L 172 125.45 L 172 84 L 32.07 84 Z" style="fill: rgb(173, 173, 173);"/>
    <path clip-path="url(#d)" d="M 32.07 84 L 32.07 177.26999999999998 L 66.08 177.26999999999998 L 96 125.45 L 172 125.45 L 172 84 L 32.07 84 Z" style="fill: rgb(173, 173, 173);"/>
    <path clip-path="url(#d)" d="M 20 236 L 92.34 236 L 125.92 202.42000000000002 L 125.92 177.28000000000003 L 66.08 177.27000000000004 L 20 98.24 L 20 236 Z" style="fill: rgb(158, 158, 158);"/>
    <path clip-path="url(#d)" d="M 20 236 L 92.34 236 L 125.92 202.42000000000002 L 125.92 177.28000000000003 L 66.08 177.27000000000004 L 20 98.24 L 20 236 Z" style="fill: rgb(158, 158, 158);"/>
    <path clip-path="url(#d)" d="M 96 125.45 L 125.92 177.27 L 92.35 236 L 172 236 L 172 125.45 L 96 125.45 Z" style="fill: rgb(196, 196, 196);"/>
    <path clip-path="url(#d)" d="M 96 125.45 L 125.92 177.27 L 92.35 236 L 172 236 L 172 125.45 L 96 125.45 Z" style="fill: rgb(196, 196, 196);"/>
    <g clip-path="url(#d)">
      <circle cx="96" cy="160" r="34.55" fill="#F1F1F1"/>
      <circle cx="96" cy="160" r="27.64" style="fill: rgb(140, 140, 140);"/>
    </g>
  </g>
</svg>